<?xml version="1.0" encoding="UTF-8"?>
<svg width="14px" height="16px" viewBox="0 0 14 16" version="1.1" xmlns="http://www.w3.org/2000/svg" xmlns:xlink="http://www.w3.org/1999/xlink">
    <title>A0A7B5B3-F079-406A-9019-1EC7AB2E3B60</title>
    <defs>
        <path d="M12,1.33333333 L11.3333333,1.33333333 L11.3333333,0 L10,0 L10,1.33333333 L3.33333333,1.33333333 L3.33333333,0 L2,0 L2,1.33333333 L1.33333333,1.33333333 C0.6,1.33333333 0,1.93333333 0,2.66666667 L0,13.3333333 C0,14.0666667 0.6,14.6666667 1.33333333,14.6666667 L12,14.6666667 C12.7333333,14.6666667 13.3333333,14.0666667 13.3333333,13.3333333 L13.3333333,2.66666667 C13.3333333,1.93333333 12.7333333,1.33333333 12,1.33333333 Z M12,13.3333333 L1.33333333,13.3333333 L1.33333333,6 L12,6 L12,13.3333333 Z M12,4.66666667 L1.33333333,4.66666667 L1.33333333,2.66666667 L12,2.66666667 L12,4.66666667 Z" id="path-1"></path>
    </defs>
    <g id="Qualify-leads-with-OTP-and-schedule-a-visit" stroke="none" stroke-width="1" fill="none" fill-rule="evenodd">
        <g id="#5-Schedule-a-Visit" transform="translate(-1585.000000, -673.000000)">
            <g id="Group-19" transform="translate(1164.000000, 0.000000)">
                <g id="Group-18" transform="translate(58.000000, 599.000000)">
                    <g id="Text-Field-Copy" transform="translate(0.000000, 50.000000)">
                        <g id="icon/action/calendar_today_24px" transform="translate(363.333333, 24.666667)">
                            <mask id="mask-2" fill="white">
                                <use xlink:href="#path-1"></use>
                            </mask>
                            <use fill="#4E5253" xlink:href="#path-1"></use>
                            <g id="↳-Color" mask="url(#mask-2)" fill="#4E5253">
                                <g transform="translate(-1.333333, -0.666667)" id="Rectangle">
                                    <rect x="0" y="0" width="16" height="16"></rect>
                                </g>
                            </g>
                        </g>
                    </g>
                </g>
            </g>
        </g>
    </g>
</svg>