<svg xmlns="http://www.w3.org/2000/svg" width="24" height="24" viewBox="0 0 24 24">
  <g id="About-Us" transform="translate(-293.978 -225.039)">
    <g id="footer">
      <g id="Group_2" data-name="Group 2">
        <g id="footer-fb">
          <path id="Path" d="M316.653,225.039H295.3a1.325,1.325,0,0,0-1.325,1.325v21.351a1.325,1.325,0,0,0,1.325,1.324H306.8v-9.294H303.67v-3.622H306.8v-2.671c0-3.1,1.893-4.788,4.659-4.788a25.655,25.655,0,0,1,2.8.143v3.24h-1.918c-1.5,0-1.8.715-1.8,1.763v2.313h3.587l-.467,3.622h-3.12v9.293h6.116a1.324,1.324,0,0,0,1.323-1.325v-21.35A1.325,1.325,0,0,0,316.653,225.039Z" fill="#60bfa9"/>
        </g>
      </g>
    </g>
  </g>
</svg>
