<?xml version="1.0" encoding="UTF-8"?>
<svg width="48px" height="48px" viewBox="0 0 48 48" version="1.1" xmlns="http://www.w3.org/2000/svg" xmlns:xlink="http://www.w3.org/1999/xlink">
    <title>77CECBF0-609D-4421-B536-7E1F84C18CE9</title>
    <g id="mWeb-Residence-Detail" stroke="none" stroke-width="1" fill="none" fill-rule="evenodd">
        <g id="mWeb---Residence-Details---with-Filling-Fast-Info" transform="translate(-32.000000, -1694.000000)">
            <rect fill="#FFFFFF" x="0" y="0" width="375" height="4114"></rect>
            <g id="Available-Occupancies" transform="translate(16.000000, 1451.000000)">
                <g id="Filling-Fast" transform="translate(0.000000, 214.000000)">
                    <rect id="Rectangle" fill="#FFF1F1" x="0" y="0" width="343" height="106" rx="8"></rect>
                    <g id="Icon-/-24px-/-Filling-Fast" transform="translate(16.000000, 29.000000)">
                        <rect id="Empty-Bg" x="0" y="0" width="48" height="48"></rect>
                        <g id="Filling-Fast" transform="translate(12.000000, 6.000000)">
                            <path d="M9.16000386,1.72269777 C12.3625669,3.40087489 15.0117957,5.75699478 17.0763526,8.45224916 C19.9227922,12.168242 21.6605846,16.5296039 22.1992629,20.6594711 C22.733257,24.753426 22.0952922,28.626705 20.1335973,31.3660406 C18.4175556,33.7623429 15.6800769,35.25 11.8878261,35.25 C9.3405794,35.25 7.14013979,34.481313 5.38490673,33.2203163 C3.45611509,31.8346315 2.06553356,29.8583761 1.33654011,27.6713957 C0.609136471,25.4891848 0.539827017,23.095139 1.26141721,20.8652027 C1.8188703,19.1425006 2.84952414,17.5203282 4.40665851,16.1691861 C4.87121814,17.6402239 5.61725886,18.9205175 6.6213601,20.098663 C6.80051318,20.3088692 6.98417907,20.5114796 7.17302103,20.7062784 C7.37226456,20.5160192 7.56427197,20.3189583 7.74853659,20.1151258 C10.0478447,17.5716434 11.1768262,13.9347197 11.1768262,10.1896311 C11.1768262,7.2633358 10.4882695,4.2791994 9.16000386,1.72269777 Z" id="Path" stroke="#F55F71" stroke-width="1.5"></path>
                            <path d="M12.6704348,21.9130435 C14.22,24.6756522 10.3069565,28.6356522 7.97478261,28.0878261 C8.30347826,29.9191304 9.89217391,31.3043478 11.8173913,31.3043478 C13.9773913,31.3043478 15.6678261,29.5513043 15.7304348,27.3913043 C15.8008696,25.0434783 15.0182609,21.9130435 12.6704348,21.9130435 Z" id="Path" fill="#F55F71"></path>
                        </g>
                    </g>
                </g>
            </g>
        </g>
    </g>
</svg>