<svg xmlns="http://www.w3.org/2000/svg" width="24" height="24" viewBox="0 0 24 24">
  <g id="About-Us" transform="translate(-255.957 -225.039)">
    <g id="footer">
      <g id="Group_4" data-name="Group 4">
        <g id="footer-ig">
          <path id="Shape" d="M267.957,227.2c3.2,0,3.584.012,4.85.07,3.252.148,4.771,1.691,4.919,4.919.058,1.265.069,1.645.069,4.849s-.012,3.584-.069,4.849c-.149,3.225-1.664,4.771-4.919,4.919-1.266.058-1.644.07-4.85.07s-3.584-.012-4.849-.07c-3.26-.149-4.771-1.7-4.919-4.92-.058-1.265-.07-1.644-.07-4.849s.013-3.583.07-4.849c.149-3.227,1.664-4.771,4.919-4.919,1.266-.057,1.645-.069,4.849-.069Zm0-2.163c-3.259,0-3.667.014-4.947.072-4.358.2-6.78,2.618-6.98,6.98-.059,1.281-.073,1.689-.073,4.948s.014,3.668.072,4.948c.2,4.358,2.618,6.78,6.98,6.98,1.281.058,1.689.072,4.948.072s3.668-.014,4.948-.072c4.354-.2,6.782-2.618,6.979-6.98.059-1.28.073-1.689.073-4.948s-.014-3.667-.072-4.947c-.2-4.354-2.617-6.78-6.979-6.98C271.625,225.053,271.216,225.039,267.957,225.039Zm0,5.838a6.162,6.162,0,1,0,6.162,6.162A6.162,6.162,0,0,0,267.957,230.877Zm0,10.162a4,4,0,1,1,4-4A4,4,0,0,1,267.957,241.039Zm6.406-11.845a1.44,1.44,0,1,0,1.439,1.44A1.441,1.441,0,0,0,274.363,229.194Z" fill="#60bfa9"/>
        </g>
      </g>
    </g>
  </g>
</svg>
